P1
5 6
11111
00000
11111
00000
11111
00000
